<svg xmlns="http://www.w3.org/2000/svg" version="1.1" xmlns:xlink="http://www.w3.org/1999/xlink" xmlns:svgjs="http://svgjs.dev/svgjs" width="1440" height="560" preserveAspectRatio="none" viewBox="0 0 1440 560"><g mask="url(&quot;#SvgjsMask1011&quot;)" fill="none"><rect width="1440" height="560" x="0" y="0" fill="rgba(8, 24, 40, 1)"></rect><path d="M748.322,501.795C770.283,501.415,788.233,485.344,798.107,465.725C807.008,448.039,804.821,427.21,794.301,410.436C784.448,394.724,766.865,386.033,748.322,386.34C730.322,386.638,714.731,396.83,704.906,411.915C693.913,428.794,686.702,449.362,695.463,467.5C705.254,487.77,725.814,502.184,748.322,501.795" fill="rgba(33, 44, 74, 0.64)" class="triangle-float2"></path><path d="M33.137,612.649C66.947,612.974,94.322,588.134,110.854,558.639C126.973,529.881,131.496,495.048,115.08,466.459C98.603,437.765,66.176,421.49,33.137,423.296C2.806,424.954,-19.757,448.158,-34.629,474.644C-49.123,500.455,-55.084,530.599,-42.036,557.17C-27.324,587.132,-0.24,612.328,33.137,612.649" fill="rgba(33, 44, 74, 0.64)" class="triangle-float2"></path><path d="M445.057,660.712C483.444,658.875,515.702,636.094,536.21,603.592C558.493,568.277,572.996,525.253,553.989,488.073C533.542,448.076,489.977,425.093,445.057,425.285C400.465,425.476,359.899,450.309,337.728,488.999C315.684,527.468,313.93,575.506,337.43,613.104C359.715,648.757,403.06,662.722,445.057,660.712" fill="rgba(33, 44, 74, 0.64)" class="triangle-float2"></path><path d="M817.834,62.892C834.254,62.518,851.933,58.958,860.042,44.676C868.08,30.52,861.458,13.908,853.805,-0.46C845.48,-16.091,835.541,-34.263,817.834,-34.571C799.842,-34.884,788.445,-17.438,779.627,-1.752C771.048,13.508,763.253,31.606,772.16,46.677C780.971,61.584,800.522,63.286,817.834,62.892" fill="rgba(33, 44, 74, 0.64)" class="triangle-float2"></path><path d="M107.43 392.72 a116.28 116.28 0 1 0 232.56 0 a116.28 116.28 0 1 0 -232.56 0z" fill="rgba(33, 44, 74, 0.64)" class="triangle-float2"></path><path d="M970.63 179.51 a138.32 138.32 0 1 0 276.64 0 a138.32 138.32 0 1 0 -276.64 0z" fill="rgba(33, 44, 74, 0.64)" class="triangle-float3"></path><path d="M719.63 397.44 a186.3 186.3 0 1 0 372.6 0 a186.3 186.3 0 1 0 -372.6 0z" fill="rgba(33, 44, 74, 0.64)" class="triangle-float3"></path><path d="M1350.486,461.48C1373.786,459.865,1389.848,441.263,1402.136,421.401C1415.372,400.007,1429.995,374.723,1417.763,352.739C1405.346,330.421,1375.954,326.659,1350.486,328.569C1328.584,330.212,1310.667,343.266,1298.682,361.672C1285.175,382.415,1273.338,407.569,1284.741,429.539C1296.771,452.717,1324.435,463.286,1350.486,461.48" fill="rgba(33, 44, 74, 0.64)" class="triangle-float3"></path><path d="M843.261,181.692C869.931,180.778,892.844,166.239,907.848,144.17C925.473,118.246,940.752,86.706,926.99,58.54C911.964,27.789,877.484,12.456,843.261,11.986C808.144,11.504,771.935,25.173,755.455,56.186C739.712,85.813,751.285,121.389,770.518,148.879C786.861,172.24,814.768,182.669,843.261,181.692" fill="rgba(33, 44, 74, 0.64)" class="triangle-float2"></path><path d="M1339.747,445.141C1362.448,445.027,1383.645,435.339,1396.551,416.664C1411.731,394.699,1422.381,366.953,1410.208,343.189C1397.214,317.822,1368.21,304.29,1339.747,305.774C1313.516,307.142,1293.052,326.61,1280.96,349.928C1269.888,371.279,1269.311,396.776,1281.946,417.241C1293.992,436.752,1316.817,445.256,1339.747,445.141" fill="rgba(33, 44, 74, 0.64)" class="triangle-float1"></path><path d="M1144.045,493.04C1196.086,495.917,1244.19,463.515,1268.939,417.646C1292.547,373.892,1285.877,321.03,1259.644,278.797C1234.897,238.956,1190.913,214.825,1144.045,216.58C1099.951,218.231,1063.702,248.214,1042.53,286.928C1022.28,323.956,1022.33,367.185,1040.977,405.045C1062.37,448.48,1095.702,490.368,1144.045,493.04" fill="rgba(33, 44, 74, 0.64)" class="triangle-float2"></path></g><defs><mask id="SvgjsMask1011"><rect width="1440" height="560" fill="#ffffff"></rect></mask><style>
                @keyframes float1 {
                    0%{transform: translate(0, 0)}
                    50%{transform: translate(-10px, 0)}
                    100%{transform: translate(0, 0)}
                }

                .triangle-float1 {
                    animation: float1 5s infinite;
                }

                @keyframes float2 {
                    0%{transform: translate(0, 0)}
                    50%{transform: translate(-5px, -5px)}
                    100%{transform: translate(0, 0)}
                }

                .triangle-float2 {
                    animation: float2 4s infinite;
                }

                @keyframes float3 {
                    0%{transform: translate(0, 0)}
                    50%{transform: translate(0, -10px)}
                    100%{transform: translate(0, 0)}
                }

                .triangle-float3 {
                    animation: float3 6s infinite;
                }
            </style></defs></svg>